<svg width="14150" height="14150" xmlns="http://www.w3.org/2000/svg" xmlns:svg="http://www.w3.org/2000/svg" clip-rule="evenodd">
 <defs>
  <path id="svg_1" d="m0,0z"/>
  <path id="svg_2" d="m135.001007,728.999023l67.99791,0l0,-197.997986l108.000992,0l0,-58.999817l-108.000992,0l0,-472.001007l-67.99791,0l0,472.001007l-93.000397,0l0,58.999817l93.000397,0l0,197.997986z"/>
  <path id="svg_3" d="m75.998497,531.000977l68.001198,0l0,-95.166809c27.501389,36.331604 57.834198,63.500488 91.001801,81.332092c33.332306,17.8349 69.499207,26.833008 108.666016,26.833008c39.831482,0 75.165466,-9.999023 105.998993,-30.164978c30.833282,-20.16922 53.666107,-47.334808 68.333679,-81.500031c14.667603,-34.00058 21.999817,-87.169495 21.999817,-159.335968l0,-272.999023l-67.997894,0l0,253.001007c0,60.998291 -2.66684,101.833984 -7.835876,122.332001c-8.333038,35.001526 -23.665802,61.334106 -46.165924,79.16571c-22.500122,17.666992 -51.832123,26.500519 -87.999176,26.500519c-41.500732,0 -78.668518,-13.666718 -111.332047,-41.000214c-32.834976,-27.165588 -54.502258,-60.998291 -64.833862,-101.333008c-6.499222,-26.332581 -9.834381,-74.332489 -9.834381,-144.167984l0,-194.498016l-68.00119,0l0,531.000961l-0.001076,0.000732l-0.000023,0l-0.000023,0l-0.000015,0l-0.000015,0z"/>
  <path id="svg_4" d="m524.333984,175.998001l57.666382,-30.332901c-19.000366,-36.8321 -40.832275,-66.664497 -65.66687,-89.332603c-24.834503,-22.500202 -52.668518,-39.831501 -83.666412,-51.667603c-31.165894,-11.8329 -66.167297,-17.663799 -105.333984,-17.663799c-87.001602,0 -154.835007,28.3311 -203.832001,84.999798c-49.000702,56.665504 -73.499496,120.666008 -73.499496,191.999016c0,67.164978 20.831001,127.165985 62.331703,179.665985c52.500603,66.832397 123.000999,100.333008 211.168007,100.333008c90.830719,0 163.5,-34.333099 217.666962,-102.831024c38.498047,-48.335602 58.166809,-108.668976 58.831909,-181.166992l-479.99894,0c1.33342,-61.501938 21.166786,-111.832993 59.332268,-150.998978c38.333405,-39.334305 85.664932,-58.999802 141.833023,-58.999802c27.165588,0 53.666107,4.665348 79.333588,13.999306c25.667511,9.333931 47.49942,21.667297 65.499023,37.164589c17.999481,15.50061 37.500397,40.335083 58.334656,74.832886l0.000183,-0.000885zm0.664917,143.002884c-9.166077,36.499512 -22.500214,65.498993 -39.99939,87.334106c-17.667023,21.831909 -40.832306,39.330994 -69.667114,52.665192c-28.831512,13.334198 -59.164398,20.001312 -90.833954,20.001312c-52.497314,0 -97.497772,-16.666107 -135.166031,-50.16629c-27.665985,-24.502014 -48.332397,-61.001526 -62.499596,-109.834015l398.165962,0l0.000122,-0.000305z"/>
  <path id="svg_5" d="m26.000099,531.000977l71.500999,0l178.832977,-387.666992l177.5,387.666992l73.167023,0l-243.002014,-531.000977l-12.998383,0l-245.000015,531.000977l-0.000591,0l0.000004,0z"/>
  <path id="svg_6" d="m344,473.334991l-43.999603,-45.336304c-36.499512,35.334015 -72.334,53.001007 -107.167999,53.001007c-22.164505,0 -41.164902,-7.332184 -56.998001,-21.999817c-15.833099,-14.499695 -23.833687,-31.66629 -23.833687,-51.167084c0,-17.166595 6.499214,-33.664795 19.497597,-49.165405c13.001587,-16.001007 40.502991,-34.66571 82.168289,-56.168304c50.666718,-26.164703 85.167694,-51.664398 103.5,-75.998489c17.8349,-24.666611 26.833008,-52.50061 26.833008,-83.333908c0,-43.667076 -15.332703,-80.4991 -45.998108,-110.832001c-30.66861,-30.168199 -69.001999,-45.333 -115,-45.333c-30.668579,0 -59.835999,6.66387 -87.834602,19.9981c-27.8339,13.3342 -50.834595,31.666302 -69.166702,55.167401l42.998703,48.832905c34.833595,-39.334305 72.001411,-58.999805 111.167992,-58.999805c27.333511,0 50.666702,8.8335 69.99971,26.332607c19.168304,17.499092 28.834808,38.168678 28.834808,61.834496c0,19.5009 -6.334564,36.832108 -19.000427,52.164795c-12.833801,15.000214 -41.500702,33.835907 -86.168579,56.500809c-47.999908,24.666611 -80.663818,49.000687 -97.833611,72.9991c-17.331196,24.001495 -25.996796,51.334991 -25.996796,82.168304c0,40.167206 13.831398,73.499481 41.332802,100.167999c27.666,26.497314 62.499603,39.831482 104.664993,39.831482c49.000687,0 98.334015,-23.501099 148,-70.664795l0.000214,-0.000092z"/>
  <path id="svg_7" d="m605.000977,531.000977l0,-531.000977l-68.001221,0l0,91.334396c-28.66687,-34.833595 -60.66568,-61.001495 -96.332275,-78.335999c-35.501892,-17.3312 -74.500397,-25.996799 -116.666016,-25.996799c-75.000854,0 -139.170059,27.1656 -192.335068,81.499996c-53.165695,54.4991 -79.666199,120.498009 -79.666199,198.498985c0,76.166321 26.833,141.501007 80.4991,195.667023c53.501389,54.166504 118,81.332092 193.501007,81.332092c43.499268,0 82.833313,-9.166016 118.166931,-27.498108c35.166199,-18.335297 66.167389,-46.001373 92.832642,-83.169189l0,97.668884l68.001221,0l-0.000122,-0.000305zm-273.666901,-53.000671c-38.000793,0 -73.166992,-9.333954 -105.166,-27.998596c-32.166702,-18.503204 -57.666412,-44.667908 -76.666794,-78.335999c-19.000397,-33.664825 -28.502205,-69.331421 -28.502205,-107c0,-37.164627 9.501823,-72.831207 28.666908,-106.832031c19.168289,-34.000603 44.832611,-60.501099 77.167191,-79.333618c32.33461,-19.000401 67.00029,-28.499001 104.000076,-28.499001c37.167877,0 72.666443,9.330711 105.998993,28.166496c33.500031,18.832504 59.167633,44.164314 77.167145,76.331009c17.999512,32.002121 27.000916,68.169098 27.000916,108.333008c0,61.169403 -20.166016,112.333008 -60.665649,153.501007c-40.335114,41.164886 -90.001007,61.666595 -149.001038,61.666595l0.000519,0.001129l-0.000031,0l-0.000031,0z"/>
  <path id="svg_8" d="m50.001598,531.000977l69.999706,0l0,-77.667603c20.831001,30.665405 42.830894,53.333496 65.999397,68.333679c23.165298,14.832336 47.331497,22.332397 72.333923,22.332397c18.997223,0 39.166412,-5.998718 60.665771,-17.999451l-35.666504,-57.333832c-14.335083,6.166656 -26.332581,9.333954 -36.166992,9.333954c-22.832794,0 -44.832596,-9.333954 -65.99939,-27.998627c-21.166779,-18.667877 -37.335678,-47.835175 -48.50029,-87.169495c-8.500938,-30.164978 -12.665894,-91.331177 -12.665894,-183.330978l0,-179.501983l-69.999714,0l0,531.000961l0,0.000977l-0.000011,0l-0.000004,0z"/>
  <path id="svg_9" d="m327.834015,544c81.832611,0 149.833984,-29.499878 203.664032,-88.667511c49.000671,-53.83078 73.502686,-117.666992 73.502686,-191.330994c0,-73.999893 -25.835388,-138.669006 -77.667603,-194.000992c-51.667603,-55.332104 -118.332031,-82.9981 -199.500031,-82.9981c-81.667892,0 -148.499985,27.665998 -200.167969,82.9981c-51.832214,55.3321 -77.664406,120.000992 -77.664406,194.000992c0,73.331604 24.49881,137 73.499496,190.834015c53.830803,59.497009 121.999992,89.164795 204.333,89.164795l0.000793,-0.000305zm-0.333344,-67c-56.833405,0 -105.501999,-20.830994 -146.334015,-62.66748c-40.835602,-41.833221 -61.166199,-92.499908 -61.166199,-151.832001c0,-38.165512 9.330719,-73.832016 27.830704,-107.000015c18.667892,-32.999702 43.834991,-58.49929 75.501205,-76.498924c31.501602,-17.9995 66.332001,-27.0009 104.167999,-27.0009c37.833038,0 72.666473,9.001392 104.165009,27.0009c31.66629,17.999504 56.833374,43.499214 75.50119,76.498924c18.5,33.167587 27.833923,68.834091 27.833923,107.000015c0,59.332306 -20.501709,109.998993 -61.502014,151.832001c-40.832306,41.836395 -89.500519,62.66748 -145.998016,62.66748l0.000214,0z"/>
  <path id="svg_10" d="m65.999397,735.999023l68.001198,0l0,-735.999023l-68.001198,0l0,735.999023z"/>
  <path id="svg_11" d="m99.8321,749.000977c15.500603,0 28.666893,-5.501587 39.666801,-16.666077c10.999893,-10.999939 16.501495,-24.502014 16.501495,-40.002625c0,-15.332703 -5.501572,-28.666931 -16.501495,-39.666809c-10.999908,-11.164612 -24.166199,-16.666077 -39.666801,-16.666077c-15.332703,0 -28.3311,5.501526 -39.331001,16.666077c-10.999897,10.999878 -16.501499,24.334106 -16.501499,39.666809c0,15.50061 5.501572,29.002686 16.501499,40.002625c10.999901,11.164551 23.998299,16.666077 39.331001,16.666077zm-33.832703,-218l68.001198,0l0,-531.000977l-68.001198,0l0,531.000977z"/>
  <style type="text/css">
   <![CDATA[
    @font-face { font-family:"Century Gothic";src:url("#FontID0") format(svg)}
    .str0 {stroke:#FEFEFE;stroke-width:70;stroke-dasharray:100.000000 250.000000}
    .fil3 {fill:none}
    .fil1 {fill:#FEFEFE}
    .fil2 {fill:#FEFEFE;fill-rule:nonzero}
    .fil4 {fill:white;fill-rule:nonzero}
    .fil0 {fill:url(#id0)}
    .fnt0 {font-weight:normal;font-size:3097.3px;font-family:'Century Gothic'}
   ]]>
  </style>
  <linearGradient y2="5273.85" x2="7968.52" y1="19848.6" x1="14177.9" gradientUnits="userSpaceOnUse" id="id0">
   <stop stop-color="#3C66E9" offset="0"/>
   <stop stop-color="#678CFF" offset="1"/>
  </linearGradient>
 </defs>
 <g>
  <title>Layer 1</title>
  <metadata id="CorelCorpID_0Corel-Layer"/>
  <path id="svg_12" d="m606.700073,9818.943359c-1519,-3566 140,-7689 3705.999634,-9208c3566,-1519 7689.000488,140 9208.000488,3706c1520,3566 -140,7689 -3706,9209c-3566,1519 -7689.000488,-140 -9208.000366,-3707l0.000244,0l-0.000732,0l0.000732,0z" class="fil0" fill="black"/>
  <text id="svg_13" class="fil1 fnt0" y="6435.94313" x="422.70004" fill="black" font-family="Century Gothic">travel</text>
  <text id="svg_14" class="fil1 fnt0" y="8795.94313" x="1954.70004" fill="black" font-family="Century Gothic">invasion</text>
  <g id="_895172320">
   <g id="svg_15">
    <path id="svg_16" d="m8982.700195,11902.943359l-76,201l-1,0c-1,1 0,2 -1,2l-148,-56l-15,41l149,55c7,16 26,23 42,16c16,-7 23,-26 15,-42c0,0 0,0 0,-1l75,-201l-40,-15zm924,1562l0,0l-556,-1218l24,-11l-227,-497l9,-4l-18,-38l-55,25l-26,-58l-237,-181l0,0l-76,-167l-2,1c-21,-18 -335,-348 -372,-404l-13,6c17,64 60,518 62,546l-3,1l76,166l-18,298l0,0l26,58l-55,25l18,38l8,-4l227,497l23,-10l556,1218l-100,45l67,147l828,-378l-67,-146l-99,45zm-876,-1086l0,0c-135,62 -295,2 -357,-134c-62,-135 -2,-296 133,-357c136,-62 296,-2 358,133c62,136 2,296 -134,358z" class="fil2"/>
   </g>
  </g>
  <g id="_896920880">
   <g id="svg_17">
    <path id="svg_18" d="m4055.699707,12252.943359l-709.999756,-624l-95,269l8,7c23,19 46,39 69,60c223,196 433.999756,413 627.999756,646l15,17l114,-212c28,-51 15,-124 -29,-163z" class="fil2"/>
    <path id="svg_19" d="m3340.699951,11328.943359l12,8l141,-198c34,-49 28,-121 -17,-161l-1,0c-191,-155 -434,-186 -561,-191c-54,-1 -129,33 -168,77l-141,161l27,5c127,21 387,88 708,299z" class="fil2"/>
    <path id="svg_20" d="m2430.699951,11223.943359c-14,15 -33,32 -54,47l-20,15l22,12c24,12 78,41 78,41l12,7l8,-11c66,-90 133,-151 146,-144c6,16 -42,92 -103,163l-12,14l91,53l8,-12c30,-44 120,-161 170,-170c7,-1 10,1 13,3c2,1 4,4 4,10c2,41 -76,139 -126,191l-13,13l111,73l9,-12c91,-118 189,-209 211,-193c20,18 -37,136 -122,253l-9,12l95,69l9,-13c57,-86 167,-223 217,-232c6,-1 9,1 12,2c25,23 -27,153 -126,311l-7,12l11,8c35,27 70,55 105,85l19,15l146,-483l-10,-7c-351,-231 -633,-288 -737,-301l-8,-1l-150,170z" class="fil2"/>
    <path id="svg_21" d="m2322.699951,11303.943359l-7,2c-3,2 -7,3 -10,4c-42,13 -103,55 -139,96l-135.999878,155l17,9c24.999878,13 88.999878,49 88.999878,49l12,6l8,-10c59,-77 128,-142 143,-140c4,14 -32,77 -101,158l-12,14l16,10c21,12 60,36 60,36l12,7l9,-12c41,-60 121,-158 162,-166c6,-1 9,0 12,2c1,1 3,3 3,8c2,39 -74,135 -123,186l-13,14l108,70l9,-12c85,-113 180,-203 200,-188c18,16 -39,131 -120,242l-9,13l101,72l9,-13c53,-75 150,-196 190,-202c2,-1 3,-1 5,0c18,16 -34,141 -111,266l-8,12l90,69l9,-13c35,-49 140,-179 204,-186c11,-2 19,1 26,7c36,32 -22,201 -75,311l-6,11l10,8c0,0 56,48 85,74l19,16l119,-411l-8,-6c-397,-330 -722,-505 -843,-565l-6,-3z" class="fil2"/>
    <path id="svg_22" d="m3044.699951,12315.943359c-475,-421 -875,-648 -1024.999878,-726l-10,-5l-126,143c-40,45 -35,114 10,154l25,22l10,-13c70,-92 122.999878,-135 133.999878,-133c5,16 -43.999878,91 -103.999878,161l-9,11l74,66l9,-15c38.999878,-55 113.999878,-146 154.999878,-154c6,-1 10,1 11,2c2,1 4,3 4,8c4,38 -73,135 -123,187l-11,12l94,82l10,-13c80,-106 171,-189 190,-174c1,0 1,0 1,0c16,14 -28,113 -119,241l-9,11l93,82l10,-15c55,-77 156,-201 200,-207c0,0 0,0 0,0c16,14 -29,129 -123,280l-8,11l93,82l10,-14c43,-62 170,-225 238,-233c9,-1 15,1 21,5c36,32 -38,233 -103,366l14,7l53,51c-1,2 -2,3 -3,5l28,14c56,-110 130,-230 156,-243c14,32 -9,208 -40,360l-2,9l82,72l97,-493l-7,-6z" class="fil2"/>
    <path id="svg_23" d="m3703.699707,12512.943359c30,26 -22.999756,181 -86.999756,314l-5,9l7,8c48,54 90.999756,103 129.999756,150l15,17l191,-353l-7,-8c-198,-239 -412.999756,-462 -639.999756,-662c-17,-15 -34,-30 -51,-44l-17,-15l-140,395l8,7c20,18 41,37 62,56l15,14l9,-18c49,-96 119,-197 165,-207c9,-2 16,-1 25,6c45,40 -33,207 -92,303l-7,11l9,9c0,0 39,38 60,59l15,15l10,-20c46,-93 114,-198 153,-208c6,-2 9,-1 12,2c30,26 -20,178 -81,308l-5,9l68,72l10,-21c37,-75 112,-199 155.999756,-210c6,-2 9,-1 12,2z" class="fil2"/>
    <path id="svg_24" d="m3747.699707,13040.943359l-7,-8c-194.999756,-234 -405.999756,-454 -625.999756,-654l-21,-19l-90,498l63,56l9,-18c58,-114 138,-233 186,-244c8,-2 14,-1 21,5c40,35 -29,197 -111,332l-7,11l87,77l9,-18c57,-109 132,-223 172,-233c5,-1 8,0 11,2c25,22 -14,157 -94,319l-5,11l67,59l10,-17c55,-99 129,-204 170,-214c6,-2 9,0 12,2c25,23 -6,145 -77,299l-9,19l20,3c37,5 72,-13 91,-48l118.999756,-220z" class="fil2"/>
   </g>
  </g>
  <path id="svg_25" d="m5560.699707,14032.943359c-26,-87 -86,-322 -111,-629l2,1l-9,-102c-10,-188 -21,-356 13,-570l13,-70c3,-18 6,-36 11,-54c51,-240 84,-404 146,-613l7,-27c82,-274 134,-436 186,-580l10,-27c23,-61 39,-103 46,-122c11,-4 22,-9 30,-16c13,-10 46,-15 46,-15l18,-44l-63,-26l33,-81c12,-28 -6,-63 -39,-82l64,-159l-25,-10l-64,159c-37,-10 -74,3 -85,32l-33,81l-63,-25l-18,44c0,0 21,27 23,43c1,11 6,22 11,32c-9,19 -26,61 -52,120l-12,26c-62,140 -137,292 -269,546l-13,25c-101,194 -190,335 -320,543c-9,16 -20,31 -30,47l-39,58c-125,179 -249,292 -386,420l-77,67l2,1c-231,203 -439,331 -517,376l-138,-56l-52,129l1840,743l52,-129l-138,-56zm-392,-1535l0,0c122,-215 206,-365 300,-565l52,20c-71,211 -115,376 -177,616c-3,13 -6,27 -9,40l-187,-75c7,-12 14,-24 21,-36zm-110,180l0,0l240,97c-34,179 -34,304 -41,454l-485,-196c99,-112 187,-203 286,-355zm-811,825l0,0c44,-29 125,-87 227,-176c134,-83 314,-103 476,-37c163,66 280,226 318,357c11,135 30,234 41,285l-1062,-429z" class="fil2"/>
  <g id="_896922224">
   <g id="svg_26">
    <path id="svg_27" d="m12148.700195,11874.943359l-490,-538l1,-1c0,0 39,-45 63,-113c23,-68 14,-127 14,-127l-32,-19c0,0 -11,35 -118,99c-108,65 -243,80 -243,80l-48,-59c0,0 44,-62 58,-113c15,-51 12,-58 12,-58l-26,-28c0,0 -85,81 -163,106c-78,24 -184,-86 -184,-86c0,0 -21,-22 -33,-16c-11,6 -26,12 -20,23c6,12 8,26 8,26l-744,606c0,0 -14,-5 -24,-13c-10,-8 -19,5 -27,15c-8,10 9,36 9,36c0,0 86,126 47,197c-40,72 -137,138 -137,138l22,31c0,0 7,4 59,1c53,-4 123,-35 123,-35l48,59c0,0 -42,130 -127,222c-85,92 -122,96 -122,96l13,35c0,0 55,20 126,11c72,-9 123,-38 123,-38l1,0l427,589l-198,161l178,218l1780,-1449l-177,-218l-199,162zm-1963,119l0,0c133,-109 88,-236 61,-287l752,-612c41,39 149,115 282,7c0,0 -35,76 -111,146c-58,55 -753,621 -819,667c-84,60 -165,79 -165,79zm-4,409l0,0c164,-119 194,-281 194,-281l993,-808c0,0 164,4 314,-133c0,0 -42,113 -144,210c-80,77 -1031,851 -1122,914c-116,80 -235,98 -235,98zm1100,175l0,0l-486,396l-30,-37l486,-396l30,37zm309,-246l0,0l-264,214l-224,-275c0,0 -82,-117 36,-213c118,-96 227,-2 227,-2l225,276zm521,-430l0,0l-486,396l-30,-37l486,-396l30,37z" class="fil2"/>
   </g>
  </g>
  <g id="_896922096">
   <g id="svg_28">
    <path id="svg_29" d="m7340.699707,12975.943359c0,-18 0,-29 0,-29c0,0 -1,-69 -57,-123l84,-96l119,124l578,-647l-135,-119l11,-13c0,0 0,-17 -8,-22c-7,-6 -28,-3 -28,-3c0,0 -517,579 -663,743c-20,-13 -39,-21 -56,-27l-73,1c-25,10 -58,27 -88,54l-14,-12l94,-139c0,0 -721,-547 -715,-555c-5,5 -93,94 -123,125l-11,-9l-40,45l773,589c-26,46 -26,88 -26,88c0,0 0,31 -1,79l-94,-94l-565,658l138,116l-7,7c0,0 1,18 8,23c8,5 28,2 28,2c0,0 283,-328 486,-564c-3,45 -7,91 -12,135c-24,184 -79,604 -102,780l-233,3l1,88l1141,-13l-1,-88l-264,3c-27,-176 -91,-594 -118,-778c-3,-18 -6,-38 -8,-58c205,144 607,428 602,434c5,-5 90,-98 119,-129l9,7l26,-32l-775,-554zm-236,422l0,0l134,-1l2,193l-134,2l-2,-194z" class="fil2"/>
   </g>
  </g>
  <path id="svg_30" d="m8901.700195,5316.943359c351,0 2579,540 2019,-1603.000244c-413,-1581 -2227,-1234 -917,185c262,284.000244 1585,976.000244 1866,491.000244c1252,-2160.000244 -2023,-3670.000244 -3733.000488,-2557.000244c-357,232 -702,420 -929,796" class="fil3 str0"/>
  <g id="_896922480">
   <path id="svg_31" d="m5420.699707,2410.943115c41,8 213,42 416,82l54,105l-68,-13c-33,-7 -66,16 -74,51c-9,34 11,67 44,74l91,17c21,5 42,-3 57,-18c25,106 127,524 140,578c16,60 44,73 73,79c28,7 38,11 38,11l-54,-620l46,-197c247,48 463,90 494,96c31,6 106,8 184,5l126,346l42,8l4,-45l-11,-321c34,-5 56,-11 58,-19c2,-8 -15,-22 -43,-38l154,-285l16,-42l-41,-8l-270,266c-71,-29 -141,-55 -173,-61c-33,-7 -248,-48 -493,-96l47,-197l331,-545c0,0 -12,1 -40,-4c-28,-5 -60,-4 -102,45c-37,44 -320,388 -391,475c-7,-20 -23,-35 -43,-38l-91,-18c-33,-6 -66,16 -75,51c-8,35 12,67 45,74l68,14l-96,76c-206,-41 -379,-74 -418,-81c-104,-20 -307,-3 -317,36c-9,40 160,136 272,157z" class="fil4"/>
  </g>
 </g>
</svg>