<svg width="14150" height="14150" xmlns="http://www.w3.org/2000/svg" xmlns:svg="http://www.w3.org/2000/svg" clip-rule="evenodd">
 <defs>
  <path d="m0,0z" id="svg_1"/>
  <path d="m135.00101,728.99902l67.99791,0l0,-197.99799l108.00099,0l0,-58.99982l-108.00099,0l0,-472.00101l-67.99791,0l0,472.00101l-93.0004,0l0,58.99982l93.0004,0l0,197.99799z" id="svg_2"/>
  <path d="m75.9985,531.00098l68.0012,0l0,-95.16681c27.50139,36.3316 57.8342,63.50049 91.0018,81.33209c33.33231,17.8349 69.49921,26.83301 108.66602,26.83301c39.83148,0 75.16547,-9.99902 105.99899,-30.16498c30.83328,-20.16922 53.66611,-47.33481 68.33368,-81.50003c14.6676,-34.00058 21.99982,-87.16949 21.99982,-159.33597l0,-272.99902l-67.99789,0l0,253.001c0,60.99829 -2.66684,101.83398 -7.83588,122.332c-8.33304,35.00153 -23.6658,61.33411 -46.16592,79.16571c-22.50006,17.66699 -51.83206,26.50052 -87.99918,26.50052c-41.50073,0 -78.66849,-13.66672 -111.33205,-41.00021c-32.83498,-27.16559 -54.50223,-60.99829 -64.83383,-101.33301c-6.49922,-26.33258 -9.83438,-74.33249 -9.83438,-144.16798l0,-194.49801l-68.0012,0l0,531.00095l-0.00108,0.00073l-0.00002,0l-0.00002,0l-0.00002,0l-0.00002,0l-0.00002,0z" id="svg_3"/>
  <path d="m524.33398,175.998l57.66638,-30.3329c-19.00037,-36.8321 -40.83228,-66.6645 -65.66687,-89.3326c-24.8345,-22.50021 -52.66852,-39.8315 -83.66641,-51.66761c-31.16589,-11.8329 -66.1673,-17.6638 -105.33398,-17.6638c-87.0016,0 -154.83501,28.33111 -203.83198,84.99981c-49.00071,56.6655 -73.49949,120.666 -73.49949,191.99901c0,67.16498 20.83101,127.16599 62.33171,179.66599c52.50058,66.8324 123.00096,100.33301 211.16797,100.33301c90.83072,0 163.5,-34.3331 217.66696,-102.83102c38.49805,-48.3356 58.16681,-108.66898 58.83191,-181.16699l-479.99892,0c1.33342,-61.50192 21.16679,-111.83299 59.33227,-150.99895c38.3334,-39.3343 85.66495,-58.9998 141.83304,-58.9998c27.16559,0 53.66611,4.66535 79.33359,13.9993c25.66751,9.33393 47.49942,21.6673 65.49899,37.1646c17.99948,15.50061 37.50043,40.33506 58.33466,74.83291l0.00018,-0.0009l0,-0.00003l0,-0.00002zm0.66492,143.00288c-9.16608,36.49951 -22.50021,65.49899 -39.99939,87.33411c-17.66702,21.83191 -40.83231,39.33099 -69.66711,52.66519c-28.83151,13.3342 -59.1644,20.00131 -90.83395,20.00131c-52.49731,0 -97.49774,-16.66611 -135.16603,-50.16629c-27.66599,-24.50201 -48.3324,-61.00153 -62.4996,-109.83401l398.16596,0l0.00012,-0.00031z" id="svg_4"/>
  <path d="m26.0001,531.00098l71.501,0l178.83298,-387.66699l177.5,387.66699l73.16702,0l-243.00201,-531.00098l-12.99838,0l-245.00001,531.00098l-0.00059,0l0,0z" id="svg_5"/>
  <path d="m344,473.33499l-43.9996,-45.3363c-36.49951,35.33401 -72.334,53.00101 -107.168,53.00101c-22.16451,0 -41.1649,-7.33218 -56.998,-21.99982c-15.8331,-14.49969 -23.83369,-31.66629 -23.83369,-51.16708c0,-17.1666 6.49921,-33.66479 19.4976,-49.16541c13.00159,-16.00101 40.50299,-34.66571 82.16829,-56.1683c50.66672,-26.1647 85.16769,-51.6644 103.5,-75.99849c17.8349,-24.66661 26.83301,-52.50061 26.83301,-83.33391c0,-43.66708 -15.3327,-80.4991 -45.99811,-110.832c-30.66861,-30.1682 -69.002,-45.333 -115,-45.333c-30.66858,0 -59.836,6.66387 -87.8346,19.9981c-27.8339,13.3342 -50.83459,31.6663 -69.1667,55.1674l42.9987,48.83291c34.8336,-39.33431 72.00141,-58.99981 111.16799,-58.99981c27.33351,0 50.6667,8.8335 69.99971,26.3326c19.1683,17.4991 28.83481,38.16868 28.83481,61.8345c0,19.5009 -6.33456,36.83211 -19.00043,52.16479c-12.8338,15.00021 -41.5007,33.83591 -86.16858,56.50081c-47.99991,24.66661 -80.66382,49.00069 -97.83361,72.9991c-17.3312,24.0015 -25.9968,51.33499 -25.9968,82.1683c0,40.16721 13.8314,73.49948 41.3328,100.168c27.666,26.49731 62.4996,39.83148 104.66499,39.83148c49.00069,0 98.33401,-23.5011 148,-70.66479l0.00021,-0.00009z" id="svg_6"/>
  <path d="m605.00098,531.00098l0,-531.00098l-68.00122,0l0,91.3344c-28.66687,-34.8336 -60.66568,-61.0015 -96.33228,-78.336c-35.50189,-17.3312 -74.5004,-25.9968 -116.66602,-25.9968c-75.00089,0 -139.17009,27.1656 -192.3351,81.49999c-53.1657,54.4991 -79.66619,120.49802 -79.66619,198.49899c0,76.16632 26.833,141.50101 80.4991,195.66702c53.50139,54.1665 118,81.33209 193.50104,81.33209c43.49927,0 82.83325,-9.16602 118.16687,-27.49811c35.16626,-18.3353 66.16745,-46.00137 92.8327,-83.16919l0,97.66888l68.00122,0l-0.00012,-0.00031zm-273.6669,-53.00067c-38.00079,0 -73.16699,-9.33395 -105.166,-27.9986c-32.1667,-18.5032 -57.66641,-44.66791 -76.66679,-78.336c-19.0004,-33.66483 -28.5022,-69.33142 -28.5022,-107c0,-37.16463 9.50182,-72.83121 28.66691,-106.83203c19.16829,-34.0006 44.83261,-60.5011 77.16719,-79.33362c32.33461,-19.0004 67.00029,-28.499 104.00008,-28.499c37.16788,0 72.66644,9.33071 105.99899,28.1665c33.50003,18.8325 59.16763,44.16431 77.16714,76.33101c17.99951,32.00212 27.00092,68.1691 27.00092,108.33301c0,61.1694 -20.16602,112.33301 -60.66565,153.50101c-40.33511,41.16489 -90.00101,61.6666 -149.00104,61.6666l0.00052,0.00113l-0.00003,0l-0.00003,0z" id="svg_7"/>
  <path d="m50.0016,531.00098l69.9997,0l0,-77.6676c20.83101,30.66541 42.8309,53.3335 65.9994,68.33368c23.1653,14.83234 47.3315,22.3324 72.33392,22.3324c18.99722,0 39.16641,-5.99872 60.66577,-17.99945l-35.6665,-57.33383c-14.33508,6.16666 -26.33258,9.33395 -36.16699,9.33395c-22.83279,0 -44.8326,-9.33395 -65.99939,-27.99863c-21.16678,-18.66788 -37.33568,-47.83517 -48.50029,-87.16949c-8.50094,-30.16498 -12.6659,-91.33118 -12.6659,-183.33098l0,-179.50198l-69.99971,0l0,531.00096l0,0.00098l-0.00002,0l0,0l0.00001,0z" id="svg_8"/>
  <path d="m327.83401,544c81.83261,0 149.83398,-29.49988 203.66403,-88.66751c49.00067,-53.83078 73.50269,-117.66699 73.50269,-191.33099c0,-73.99989 -25.83539,-138.66901 -77.6676,-194.00099c-51.6676,-55.3321 -118.33203,-82.9981 -199.50003,-82.9981c-81.66789,0 -148.49998,27.666 -200.16795,82.9981c-51.83221,55.3321 -77.66442,120.00099 -77.66442,194.00099c0,73.3316 24.49881,137 73.4995,190.83401c53.8308,59.49701 121.99998,89.16479 204.33299,89.16479l0.00079,-0.00031zm-0.33334,-67c-56.8334,0 -105.502,-20.83099 -146.33401,-62.66748c-40.8356,-41.83322 -61.1662,-92.49991 -61.1662,-151.832c0,-38.16551 9.33072,-73.83202 27.8307,-107.00002c18.66789,-32.9997 43.83499,-58.49929 75.50121,-76.49892c31.5016,-17.9995 66.332,-27.0009 104.168,-27.0009c37.83304,0 72.66647,9.00139 104.16501,27.0009c31.66629,17.9995 56.83337,43.49921 75.50119,76.49892c18.5,33.16759 27.83392,68.83409 27.83392,107.00002c0,59.33231 -20.50171,109.99899 -61.50201,151.832c-40.83231,41.8364 -89.50052,62.66748 -145.99802,62.66748l0.00021,0z" id="svg_9"/>
  <path d="m65.9994,735.99902l68.0012,0l0,-735.99902l-68.0012,0l0,735.99902z" id="svg_10"/>
  <path d="m99.8321,749.00098c15.5006,0 28.66689,-5.50159 39.6668,-16.66608c10.99989,-10.99994 16.5015,-24.50201 16.5015,-40.00262c0,-15.3327 -5.50157,-28.66693 -16.5015,-39.66681c-10.99991,-11.16461 -24.1662,-16.66608 -39.6668,-16.66608c-15.3327,0 -28.3311,5.50153 -39.331,16.66608c-10.9999,10.99988 -16.5015,24.33411 -16.5015,39.66681c0,15.50061 5.50157,29.00269 16.5015,40.00262c10.9999,11.16455 23.9983,16.66608 39.331,16.66608zm-33.8327,-218l68.0012,0l0,-531.00098l-68.0012,0l0,531.00098z" id="svg_11"/>
 </defs>
 <g>
  <title>Layer 1</title>
  <metadata id="CorelCorpID_0Corel-Layer"/>
  <path fill="#ffffff" class="fil0" d="m606.70007,9818.94336c-1519,-3566 140,-7689 3705.99963,-9208c3566,-1519 7689.00049,140 9208.00049,3706c1520,3566 -140,7689 -3706,9209c-3565.99951,1519 -7689.00024,-140 -9207.99963,-3707l0.00024,0l-0.00073,0l0.00073,0l-0.00073,0z" id="svg_12"/>
  <path stroke-dasharray="1,1" fill-opacity="0" stroke-width="9" stroke="#ffffff" class="fil3 str0" d="m8324.93555,10376.70313c549.87891,0 4040.27734,845.9668 3162.97754,-2511.26904c-647.00781,-2476.80371 -3488.83057,-1933.19141 -1436.57715,289.82178c410.4502,444.91699 2483.07031,1529.00781 2923.28516,769.2041c1961.39063,-3383.86865 -3169.24219,-5749.44385 -5848.13867,-4005.81152c-559.27832,363.45264 -1099.75732,657.97461 -1455.37695,1247.01807" id="svg_30"/>
  <g id="_896922480">
   <path fill="#678cff" class="fil4" d="m1211.60681,7259.95898c128.1554,25.00586 665.78247,131.28125 1300.30701,256.31006l168.78955,328.20264l-212.55005,-40.63428c-103.14941,-21.87988 -206.29883,50.01221 -231.30469,159.4126c-28.13159,106.27539 34.38354,209.42432 137.53223,231.30469l284.44214,53.13672c65.64087,15.62891 131.28101,-9.37695 178.16724,-56.26221c78.14355,331.32764 396.96851,1637.88525 437.60352,1806.67529c50.01196,187.54395 137.53223,228.17969 228.17822,246.93262c87.52124,21.87988 118.77856,34.38379 118.77856,34.38379l-168.79028,-1937.95703l143.78418,-615.76953c772.05664,150.03467 1447.21582,281.31543 1544.11426,300.07031c96.89746,18.75391 331.32764,25.00586 575.13574,15.62891l393.84229,1081.50488l131.28174,25.00586l12.50244,-140.6582l-34.38281,-1003.36182c106.2749,-15.62842 175.04102,-34.38281 181.29199,-59.38867c6.25146,-25.00586 -46.88525,-68.7666 -134.40625,-118.77783l481.36328,-890.83496l50.01172,-131.28125l-128.15527,-25.00586l-843.94922,831.4458c-221.92627,-90.646 -440.729,-171.91504 -540.75244,-190.66992c-103.14893,-21.88037 -775.18213,-150.03564 -1540.98828,-300.07129l146.91016,-615.76953l1034.61865,-1703.52637c0,0 -37.50928,3.12549 -125.02881,-12.50342c-87.52148,-15.62891 -187.54492,-12.50244 -318.82617,140.65869c-115.65186,137.53223 -1000.2356,1212.78516 -1222.1626,1484.72461c-21.88037,-62.51416 -71.89233,-109.40039 -134.40674,-118.77734l-284.44214,-56.26416c-103.14941,-18.75439 -206.29883,50.01221 -234.43042,159.4126c-25.00586,109.40137 37.50928,209.42432 140.65869,231.30469l212.55005,43.75977l-300.07129,237.55713c-643.90137,-128.15527 -1184.65417,-231.30469 -1306.5575,-253.18506c-325.07715,-62.51465 -959.60168,-9.37695 -990.85895,112.52686c-28.13159,125.02881 500.11792,425.09961 850.20026,490.74023z" id="svg_31"/>
  </g>
 </g>
</svg>